<svg version="1.1" id="Layer_1" xmlns="http://www.w3.org/2000/svg" xmlns:xlink="http://www.w3.org/1999/xlink" x="0px" y="0px"
	 width="100%" viewBox="0 0 573 175" enable-background="new 0 0 573 175" xml:space="preserve">
<path fill="#FEFFFF" opacity="1.000000" stroke="none" 
	d="
M474.000000,176.000000 
	C316.000000,176.000000 158.500000,176.000000 1.000000,176.000000 
	C1.000000,117.666664 1.000000,59.333332 1.000000,1.000000 
	C192.000000,1.000000 383.000000,1.000000 574.000000,1.000000 
	C574.000000,59.333332 574.000000,117.666664 574.000000,176.000000 
	C540.833313,176.000000 507.666656,176.000000 474.000000,176.000000 
M98.702530,115.886902 
	C103.655190,115.886902 108.607841,115.886902 114.186630,115.886902 
	C114.186630,107.837395 114.186630,100.124115 114.186630,92.252853 
	C115.816864,92.252853 116.809822,92.256996 117.802727,92.252205 
	C125.912537,92.213013 126.478012,92.646233 128.337296,100.317329 
	C129.585175,105.465858 130.835831,110.613724 132.058594,115.652069 
	C137.897629,115.652069 143.445526,115.652069 149.922699,115.652069 
	C144.799057,105.764610 148.078491,92.907906 136.740540,87.247490 
	C139.302750,85.425240 142.602539,84.062843 144.431290,81.605621 
	C151.932510,71.526573 145.734406,55.385834 133.393097,54.220734 
	C121.761436,53.122631 109.944664,53.985126 97.948624,53.985126 
	C97.948624,74.701477 97.948624,94.989708 98.702530,115.886902 
M340.343964,89.801094 
	C337.839142,98.376190 335.334320,106.951279 332.745789,115.812988 
	C338.660767,115.812988 344.105713,115.812988 349.694427,115.812988 
	C350.771729,111.673347 351.668732,107.629189 352.947327,103.709496 
	C353.291534,102.654297 354.765808,101.284523 355.771729,101.241646 
	C361.381256,101.002518 367.006287,101.126755 372.601227,101.126755 
	C373.947205,106.281754 375.158875,110.922394 376.422455,115.761856 
	C381.962708,115.761856 387.400452,115.761856 392.822418,115.761856 
	C392.897675,115.313171 393.072388,114.953255 392.989563,114.668098 
	C387.573730,96.015717 382.157715,77.363312 376.682770,58.728218 
	C375.721741,55.457043 373.392914,53.923492 369.937714,53.980141 
	C365.613373,54.051037 361.276794,54.182175 356.964294,53.945164 
	C352.508942,53.700302 350.261292,55.785110 349.111298,59.876099 
	C346.370941,69.624916 343.470062,79.328590 340.343964,89.801094 
M179.735016,103.280037 
	C173.419128,102.550911 172.395889,100.069359 174.466675,89.551193 
	C182.037186,89.551193 189.752914,89.551193 197.360046,89.551193 
	C197.360046,85.483543 197.360046,82.072517 197.360046,78.206100 
	C189.424805,78.206100 181.837662,78.206100 174.342300,78.206100 
	C172.569290,67.698486 173.369049,66.716461 183.239288,66.716202 
	C189.036880,66.716049 194.834473,66.716171 200.905060,66.716171 
	C201.176636,62.535831 201.417953,58.821609 201.727936,54.050320 
	C189.835602,54.050320 178.543182,53.652763 167.298126,54.210449 
	C161.266525,54.509590 157.114578,60.053165 157.035690,66.474220 
	C156.884354,78.793732 156.858139,91.118393 157.040924,103.437050 
	C157.151001,110.856354 162.235107,115.775040 169.769180,116.080818 
	C174.423767,116.269722 179.094559,116.222610 183.753433,116.102112 
	C189.653885,115.949516 195.549652,115.614784 201.754913,115.345238 
	C201.430298,110.898018 201.168228,107.307610 200.874496,103.283623 
	C193.955276,103.283623 187.322968,103.283623 179.735016,103.280037 
M229.570587,52.881893 
	C226.267090,53.204895 222.926437,53.317348 219.667435,53.892498 
	C211.619080,55.312889 208.695908,58.551617 207.612671,66.780869 
	C206.193008,77.565926 209.643143,83.900650 219.552933,88.271523 
	C224.562439,90.481049 229.836426,92.138489 234.684158,94.639893 
	C236.265533,95.455864 237.409607,98.080948 237.666321,100.022415 
	C237.767044,100.784142 234.999557,102.354492 233.334717,102.806030 
	C231.468369,103.312210 229.371582,102.987846 227.375015,102.991096 
	C221.279770,103.001007 215.184509,102.994698 209.096375,102.994698 
	C208.753342,106.071312 208.135483,108.732544 208.302567,111.343552 
	C208.384628,112.626183 209.737503,114.681000 210.828613,114.913033 
	C221.298141,117.139542 231.869034,118.097008 242.507614,116.034195 
	C249.663971,114.646584 252.923828,111.379196 254.310379,104.341141 
	C256.696259,92.230362 252.776413,84.844574 241.364853,80.173843 
	C236.600723,78.223885 231.629044,76.722832 227.038452,74.440849 
	C225.569519,73.710648 224.269653,71.103119 224.323105,69.399422 
	C224.357529,68.302444 226.866592,66.844246 228.507492,66.353233 
	C230.350037,65.801895 232.463882,66.129082 234.459824,66.123817 
	C240.220947,66.108620 245.982162,66.118446 251.837997,66.118446 
	C252.217880,62.364101 252.546799,59.113182 252.999435,54.639721 
	C245.292282,54.036366 237.917648,53.459042 229.570587,52.881893 
M438.171051,55.018818 
	C425.232391,51.417110 412.210724,53.318001 399.004120,54.004822 
	C399.004120,74.798569 399.004120,95.165924 399.004120,115.656540 
	C404.472015,115.656540 409.679688,115.656540 415.394470,115.656540 
	C415.394470,108.259483 415.394470,101.199501 415.394470,94.070839 
	C421.226074,94.070839 426.557983,94.332085 431.854706,94.011292 
	C440.389069,93.494408 445.476959,90.128075 446.553528,83.134254 
	C447.472046,77.167183 447.258362,70.910576 446.675690,64.865898 
	C446.246704,60.415493 443.384460,56.952969 438.171051,55.018818 
M284.500000,53.999985 
	C276.242096,53.999985 267.984161,53.999985 259.672668,53.999985 
	C259.672668,58.659054 259.672668,62.707676 259.672668,67.211685 
	C265.612854,67.211685 271.190063,67.211685 277.230408,67.211685 
	C277.230408,83.713737 277.230408,99.757156 277.230408,115.606674 
	C283.107758,115.606674 288.497589,115.606674 294.165894,115.606674 
	C294.165894,99.292725 294.165894,83.370544 294.165894,66.955788 
	C300.182068,66.955788 305.914520,66.955788 311.688477,66.955788 
	C311.688477,62.399136 311.688477,58.347141 311.688477,53.999985 
	C302.752869,53.999985 294.126434,53.999985 284.500000,53.999985 
M521.416077,117.826256 
	C521.427429,111.503258 521.170959,105.162354 521.591858,98.866737 
	C521.744263,96.585800 524.003113,94.503593 524.437073,92.170074 
	C525.105164,88.577377 526.591370,82.912689 524.940735,81.578499 
	C521.561462,78.847076 521.867371,76.052864 521.807007,72.865814 
	C521.721924,68.374619 521.915100,63.875687 521.747437,59.389103 
	C521.505127,52.906544 517.995605,48.156013 512.056213,47.159332 
	C508.242279,46.519325 504.233704,47.039268 500.300323,47.039268 
	C500.300323,50.447315 500.300323,53.538273 500.300323,56.566719 
	C506.085846,57.635654 506.148010,57.687637 506.206665,63.305336 
	C506.243134,66.799339 506.306610,70.297028 506.193695,73.787750 
	C505.993408,79.980095 507.812775,84.799179 514.757324,86.399071 
	C506.599884,91.200241 505.878265,92.477066 505.859406,101.773781 
	C505.851990,105.434540 505.650635,109.110100 505.909790,112.752441 
	C506.247833,117.504066 505.855011,121.481941 499.797333,121.304176 
	C499.797333,124.671463 499.797333,127.623550 499.797333,130.527954 
	C513.094116,132.888474 519.973938,129.045242 521.416077,117.826256 
M60.313095,83.736305 
	C61.230164,81.823189 62.731949,79.973198 62.946678,77.984253 
	C63.445381,73.364960 63.584408,68.666901 63.376511,64.022812 
	C63.180260,59.638996 63.847874,56.369595 69.253067,56.635685 
	C69.253067,53.272163 69.253067,50.313168 69.253067,46.906479 
	C66.624893,46.785614 64.165100,46.508015 61.717213,46.589218 
	C52.537334,46.893734 48.035278,51.498287 47.869907,60.662521 
	C47.803768,64.327896 47.965260,67.999519 47.826462,71.660843 
	C47.689384,75.276802 49.211712,79.592056 44.175968,81.449715 
	C43.873974,81.561119 43.596920,82.334579 43.659485,82.746635 
	C44.206406,86.348572 41.516418,90.732971 46.595989,93.333107 
	C47.689270,93.892738 48.096394,96.555199 48.140858,98.266647 
	C48.313950,104.928658 48.098087,111.600357 48.247204,118.263519 
	C48.404896,125.309944 52.510227,130.097351 59.276173,130.909943 
	C62.670761,131.317627 66.154739,130.981033 69.785370,130.981033 
	C69.785370,127.347862 69.785370,124.248741 69.785370,120.773491 
	C64.669380,121.607056 63.494972,118.924461 63.739342,114.627205 
	C63.966068,110.640228 63.676640,106.626434 63.811996,102.631142 
	C64.051796,95.553093 63.047230,89.210976 54.753368,86.742035 
	C56.784813,85.708038 58.260700,84.956825 60.313095,83.736305 
M455.753418,96.499596 
	C455.753418,102.900421 455.753418,109.301247 455.753418,115.742195 
	C461.533569,115.742195 466.608093,115.742195 471.868103,115.742195 
	C471.868103,95.145988 471.868103,74.806313 471.868103,54.336361 
	C466.414581,54.336361 461.208801,54.336361 456.081207,54.336361 
	C455.937988,54.990116 455.807220,55.309692 455.806610,55.629513 
	C455.781525,68.919601 455.768097,82.209702 455.753418,96.499596 
M317.852264,90.091637 
	C321.040100,89.311119 325.719238,89.577225 327.138275,87.555321 
	C331.525238,81.304497 327.201996,74.696030 319.547638,74.874260 
	C316.629669,74.942207 313.842194,75.043434 313.030396,78.748878 
	C311.804138,84.346306 313.115265,88.251801 317.852264,90.091637 
M326.955353,114.359779 
	C327.278748,111.118591 328.163727,107.790512 327.681549,104.673950 
	C327.450806,103.182549 324.706268,101.163521 322.964355,101.018791 
	C319.636597,100.742294 315.271271,99.071434 313.331390,103.639633 
	C310.006622,111.469040 314.078644,116.822517 322.500610,115.936188 
	C323.793274,115.800140 325.044800,115.273521 326.955353,114.359779 
z"/>
<path fill="#029DD5" opacity="1.000000" stroke="none" 
	d="
M98.325577,115.582413 
	C97.948624,94.989708 97.948624,74.701477 97.948624,53.985126 
	C109.944664,53.985126 121.761436,53.122631 133.393097,54.220734 
	C145.734406,55.385834 151.932510,71.526573 144.431290,81.605621 
	C142.602539,84.062843 139.302750,85.425240 136.740540,87.247490 
	C148.078491,92.907906 144.799057,105.764610 149.922699,115.652069 
	C143.445526,115.652069 137.897629,115.652069 132.058594,115.652069 
	C130.835831,110.613724 129.585175,105.465858 128.337296,100.317329 
	C126.478012,92.646233 125.912537,92.213013 117.802727,92.252205 
	C116.809822,92.256996 115.816864,92.252853 114.186630,92.252853 
	C114.186630,100.124115 114.186630,107.837395 114.186630,115.886902 
	C108.607841,115.886902 103.655190,115.886902 98.325577,115.582413 
M114.858772,65.251038 
	C114.477715,70.184486 114.096649,75.117935 113.712982,80.085106 
	C118.180984,80.085106 121.684082,80.408844 125.080254,79.946716 
	C126.745300,79.720146 128.967178,78.387024 129.638336,76.948685 
	C132.656250,70.481033 129.289307,65.339088 122.222923,65.122940 
	C120.077003,65.057304 117.927048,65.123474 114.858772,65.251038 
z"/>
<path fill="#039DD5" opacity="1.000000" stroke="none" 
	d="
M340.488983,89.425797 
	C343.470062,79.328590 346.370941,69.624916 349.111298,59.876099 
	C350.261292,55.785110 352.508942,53.700302 356.964294,53.945164 
	C361.276794,54.182175 365.613373,54.051037 369.937714,53.980141 
	C373.392914,53.923492 375.721741,55.457043 376.682770,58.728218 
	C382.157715,77.363312 387.573730,96.015717 392.989563,114.668098 
	C393.072388,114.953255 392.897675,115.313171 392.822418,115.761856 
	C387.400452,115.761856 381.962708,115.761856 376.422455,115.761856 
	C375.158875,110.922394 373.947205,106.281754 372.601227,101.126755 
	C367.006287,101.126755 361.381256,101.002518 355.771729,101.241646 
	C354.765808,101.284523 353.291534,102.654297 352.947327,103.709496 
	C351.668732,107.629189 350.771729,111.673347 349.694427,115.812988 
	C344.105713,115.812988 338.660767,115.812988 332.745789,115.812988 
	C335.334320,106.951279 337.839142,98.376190 340.488983,89.425797 
M366.931335,78.430069 
	C365.925598,74.307335 364.919861,70.184608 363.914124,66.061874 
	C363.300507,66.102951 362.686890,66.144028 362.073273,66.185104 
	C360.307312,73.652138 358.541351,81.119171 356.744324,88.717598 
	C361.392883,88.717598 365.276215,88.717598 369.463135,88.717598 
	C368.608795,85.322754 367.843079,82.280151 366.931335,78.430069 
z"/>
<path fill="#089ED6" opacity="1.000000" stroke="none" 
	d="
M180.212845,103.281830 
	C187.322968,103.283623 193.955276,103.283623 200.874496,103.283623 
	C201.168228,107.307610 201.430298,110.898018 201.754913,115.345238 
	C195.549652,115.614784 189.653885,115.949516 183.753433,116.102112 
	C179.094559,116.222610 174.423767,116.269722 169.769180,116.080818 
	C162.235107,115.775040 157.151001,110.856354 157.040924,103.437050 
	C156.858139,91.118393 156.884354,78.793732 157.035690,66.474220 
	C157.114578,60.053165 161.266525,54.509590 167.298126,54.210449 
	C178.543182,53.652763 189.835602,54.050320 201.727936,54.050320 
	C201.417953,58.821609 201.176636,62.535831 200.905060,66.716171 
	C194.834473,66.716171 189.036880,66.716049 183.239288,66.716202 
	C173.369049,66.716461 172.569290,67.698486 174.342300,78.206100 
	C181.837662,78.206100 189.424805,78.206100 197.360046,78.206100 
	C197.360046,82.072517 197.360046,85.483543 197.360046,89.551193 
	C189.752914,89.551193 182.037186,89.551193 174.466675,89.551193 
	C172.395889,100.069359 173.419128,102.550911 180.212845,103.281830 
z"/>
<path fill="#039DD5" opacity="1.000000" stroke="none" 
	d="
M230.056793,52.881805 
	C237.917648,53.459042 245.292282,54.036366 252.999435,54.639721 
	C252.546799,59.113182 252.217880,62.364101 251.837997,66.118446 
	C245.982162,66.118446 240.220947,66.108620 234.459824,66.123817 
	C232.463882,66.129082 230.350037,65.801895 228.507492,66.353233 
	C226.866592,66.844246 224.357529,68.302444 224.323105,69.399422 
	C224.269653,71.103119 225.569519,73.710648 227.038452,74.440849 
	C231.629044,76.722832 236.600723,78.223885 241.364853,80.173843 
	C252.776413,84.844574 256.696259,92.230362 254.310379,104.341141 
	C252.923828,111.379196 249.663971,114.646584 242.507614,116.034195 
	C231.869034,118.097008 221.298141,117.139542 210.828613,114.913033 
	C209.737503,114.681000 208.384628,112.626183 208.302567,111.343552 
	C208.135483,108.732544 208.753342,106.071312 209.096375,102.994698 
	C215.184509,102.994698 221.279770,103.001007 227.375015,102.991096 
	C229.371582,102.987846 231.468369,103.312210 233.334717,102.806030 
	C234.999557,102.354492 237.767044,100.784142 237.666321,100.022415 
	C237.409607,98.080948 236.265533,95.455864 234.684158,94.639893 
	C229.836426,92.138489 224.562439,90.481049 219.552933,88.271523 
	C209.643143,83.900650 206.193008,77.565926 207.612671,66.780869 
	C208.695908,58.551617 211.619080,55.312889 219.667435,53.892498 
	C222.926437,53.317348 226.267090,53.204895 230.056793,52.881805 
z"/>
<path fill="#029DD5" opacity="1.000000" stroke="none" 
	d="
M438.539612,55.151463 
	C443.384460,56.952969 446.246704,60.415493 446.675690,64.865898 
	C447.258362,70.910576 447.472046,77.167183 446.553528,83.134254 
	C445.476959,90.128075 440.389069,93.494408 431.854706,94.011292 
	C426.557983,94.332085 421.226074,94.070839 415.394470,94.070839 
	C415.394470,101.199501 415.394470,108.259483 415.394470,115.656540 
	C409.679688,115.656540 404.472015,115.656540 399.004120,115.656540 
	C399.004120,95.165924 399.004120,74.798569 399.004120,54.004822 
	C412.210724,53.318001 425.232391,51.417110 438.539612,55.151463 
M424.880554,65.205040 
	C421.778564,65.205040 418.676605,65.205040 415.376953,65.205040 
	C415.376953,71.048904 415.376953,76.431549 415.376953,82.258575 
	C418.264160,82.258575 420.878418,82.300941 423.490753,82.248543 
	C427.308563,82.171974 430.286407,81.088905 430.887787,76.601105 
	C431.759674,70.094643 430.594543,67.346375 424.880554,65.205040 
z"/>
<path fill="#019CD5" opacity="1.000000" stroke="none" 
	d="
M285.000000,53.999985 
	C294.126434,53.999985 302.752869,53.999985 311.688477,53.999985 
	C311.688477,58.347141 311.688477,62.399136 311.688477,66.955788 
	C305.914520,66.955788 300.182068,66.955788 294.165894,66.955788 
	C294.165894,83.370544 294.165894,99.292725 294.165894,115.606674 
	C288.497589,115.606674 283.107758,115.606674 277.230408,115.606674 
	C277.230408,99.757156 277.230408,83.713737 277.230408,67.211685 
	C271.190063,67.211685 265.612854,67.211685 259.672668,67.211685 
	C259.672668,62.707676 259.672668,58.659054 259.672668,53.999985 
	C267.984161,53.999985 276.242096,53.999985 285.000000,53.999985 
z"/>
<path fill="#686868" opacity="1.000000" stroke="none" 
	d="
M521.369629,118.255661 
	C519.973938,129.045242 513.094116,132.888474 499.797333,130.527954 
	C499.797333,127.623550 499.797333,124.671463 499.797333,121.304176 
	C505.855011,121.481941 506.247833,117.504066 505.909790,112.752441 
	C505.650635,109.110100 505.851990,105.434540 505.859406,101.773781 
	C505.878265,92.477066 506.599884,91.200241 514.757324,86.399071 
	C507.812775,84.799179 505.993408,79.980095 506.193695,73.787750 
	C506.306610,70.297028 506.243134,66.799339 506.206665,63.305336 
	C506.148010,57.687637 506.085846,57.635654 500.300323,56.566719 
	C500.300323,53.538273 500.300323,50.447315 500.300323,47.039268 
	C504.233704,47.039268 508.242279,46.519325 512.056213,47.159332 
	C517.995605,48.156013 521.505127,52.906544 521.747437,59.389103 
	C521.915100,63.875687 521.721924,68.374619 521.807007,72.865814 
	C521.867371,76.052864 521.561462,78.847076 524.940735,81.578499 
	C526.591370,82.912689 525.105164,88.577377 524.437073,92.170074 
	C524.003113,94.503593 521.744263,96.585800 521.591858,98.866737 
	C521.170959,105.162354 521.427429,111.503258 521.369629,118.255661 
z"/>
<path fill="#696969" opacity="1.000000" stroke="none" 
	d="
M60.024841,83.970963 
	C58.260700,84.956825 56.784813,85.708038 54.753368,86.742035 
	C63.047230,89.210976 64.051796,95.553093 63.811996,102.631142 
	C63.676640,106.626434 63.966068,110.640228 63.739342,114.627205 
	C63.494972,118.924461 64.669380,121.607056 69.785370,120.773491 
	C69.785370,124.248741 69.785370,127.347862 69.785370,130.981033 
	C66.154739,130.981033 62.670761,131.317627 59.276173,130.909943 
	C52.510227,130.097351 48.404896,125.309944 48.247204,118.263519 
	C48.098087,111.600357 48.313950,104.928658 48.140858,98.266647 
	C48.096394,96.555199 47.689270,93.892738 46.595989,93.333107 
	C41.516418,90.732971 44.206406,86.348572 43.659485,82.746635 
	C43.596920,82.334579 43.873974,81.561119 44.175968,81.449715 
	C49.211712,79.592056 47.689384,75.276802 47.826462,71.660843 
	C47.965260,67.999519 47.803768,64.327896 47.869907,60.662521 
	C48.035278,51.498287 52.537334,46.893734 61.717213,46.589218 
	C64.165100,46.508015 66.624893,46.785614 69.253067,46.906479 
	C69.253067,50.313168 69.253067,53.272163 69.253067,56.635685 
	C63.847874,56.369595 63.180260,59.638996 63.376511,64.022812 
	C63.584408,68.666901 63.445381,73.364960 62.946678,77.984253 
	C62.731949,79.973198 61.230164,81.823189 60.024841,83.970963 
z"/>
<path fill="#009CD5" opacity="1.000000" stroke="none" 
	d="
M455.753326,95.999695 
	C455.768097,82.209702 455.781525,68.919601 455.806610,55.629513 
	C455.807220,55.309692 455.937988,54.990116 456.081207,54.336361 
	C461.208801,54.336361 466.414581,54.336361 471.868103,54.336361 
	C471.868103,74.806313 471.868103,95.145988 471.868103,115.742195 
	C466.608093,115.742195 461.533569,115.742195 455.753418,115.742195 
	C455.753418,109.301247 455.753418,102.900421 455.753326,95.999695 
z"/>
<path fill="#059DD6" opacity="1.000000" stroke="none" 
	d="
M317.412445,90.060005 
	C313.115265,88.251801 311.804138,84.346306 313.030396,78.748878 
	C313.842194,75.043434 316.629669,74.942207 319.547638,74.874260 
	C327.201996,74.696030 331.525238,81.304497 327.138275,87.555321 
	C325.719238,89.577225 321.040100,89.311119 317.412445,90.060005 
z"/>
<path fill="#049DD5" opacity="1.000000" stroke="none" 
	d="
M326.635376,114.643661 
	C325.044800,115.273521 323.793274,115.800140 322.500610,115.936188 
	C314.078644,116.822517 310.006622,111.469040 313.331390,103.639633 
	C315.271271,99.071434 319.636597,100.742294 322.964355,101.018791 
	C324.706268,101.163521 327.450806,103.182549 327.681549,104.673950 
	C328.163727,107.790512 327.278748,111.118591 326.635376,114.643661 
z"/>
<path fill="#FAFDFE" opacity="1.000000" stroke="none" 
	d="
M115.318863,65.190155 
	C117.927048,65.123474 120.077003,65.057304 122.222923,65.122940 
	C129.289307,65.339088 132.656250,70.481033 129.638336,76.948685 
	C128.967178,78.387024 126.745300,79.720146 125.080254,79.946716 
	C121.684082,80.408844 118.180984,80.085106 113.712982,80.085106 
	C114.096649,75.117935 114.477715,70.184486 115.318863,65.190155 
z"/>
<path fill="#F5FAFD" opacity="1.000000" stroke="none" 
	d="
M367.004333,78.833809 
	C367.843079,82.280151 368.608795,85.322754 369.463135,88.717598 
	C365.276215,88.717598 361.392883,88.717598 356.744324,88.717598 
	C358.541351,81.119171 360.307312,73.652138 362.073273,66.185104 
	C362.686890,66.144028 363.300507,66.102951 363.914124,66.061874 
	C364.919861,70.184608 365.925598,74.307335 367.004333,78.833809 
z"/>
<path fill="#F7FBFD" opacity="1.000000" stroke="none" 
	d="
M425.303650,65.260468 
	C430.594543,67.346375 431.759674,70.094643 430.887787,76.601105 
	C430.286407,81.088905 427.308563,82.171974 423.490753,82.248543 
	C420.878418,82.300941 418.264160,82.258575 415.376953,82.258575 
	C415.376953,76.431549 415.376953,71.048904 415.376953,65.205040 
	C418.676605,65.205040 421.778564,65.205040 425.303650,65.260468 
z"/>
</svg>